# xmcd
#
# Track frame offsets:
#	150
#	57677
#	116720
#	160063
#	183945
#	204314
#
# Disc length: 2908 seconds
#
# Revision: 0
# Processed by: cddbd v1.5.2PL0 Copyright (c) Steve Scherf et al.
# Submitted via: audiograbber 1.83.01
#
DISCID=4f0b5a06
DTITLE=Grateful Dead - 93-12-08 Los Angeles Sports Arena, Los Angeles CA
DYEAR=1900
DGENRE=
TTITLE0=Space
TTITLE1=The Last Time
TTITLE2=Morning Dew
TTITLE3=Sugar Magnolia
TTITLE4=Sunshine Daydream
TTITLE5=I Fought The Law
EXTD=
EXTT0=
EXTT1=
EXTT2=
EXTT3=
EXTT4=
EXTT5=
PLAYORDER=
